<mxfile host="app.diagrams.net" agent="Mozilla/5.0 (Windows NT 10.0; Win64; x64) AppleWebKit/537.36 (KHTML, like Gecko) Chrome/133.0.0.0 Safari/537.36 OPR/118.0.0.0" version="25.0.3">
  <diagram name="Página-1" id="T3Gohxqtw-KcoY6glIvi">
    <mxGraphModel grid="1" page="1" gridSize="10" guides="1" tooltips="1" connect="1" arrows="1" fold="1" pageScale="1" pageWidth="827" pageHeight="1169" math="0" shadow="0">
      <root>
        <mxCell id="0" />
        <mxCell id="1" parent="0" />
        <mxCell id="vYhfG8KYwHvdaX_r0FYb-3" value="Proyecto Intermodular" style="swimlane;whiteSpace=wrap;html=1;" vertex="1" parent="1">
          <mxGeometry x="280" y="40" width="290" height="570" as="geometry" />
        </mxCell>
        <mxCell id="vYhfG8KYwHvdaX_r0FYb-13" value="Desarrollar BBDD" style="ellipse;whiteSpace=wrap;html=1;" vertex="1" parent="vYhfG8KYwHvdaX_r0FYb-3">
          <mxGeometry x="100" y="50" width="85" height="60" as="geometry" />
        </mxCell>
        <mxCell id="vYhfG8KYwHvdaX_r0FYb-29" value="Conectar HTML - AWS" style="ellipse;whiteSpace=wrap;html=1;" vertex="1" parent="vYhfG8KYwHvdaX_r0FYb-3">
          <mxGeometry x="102.5" y="400" width="85" height="60" as="geometry" />
        </mxCell>
        <mxCell id="vYhfG8KYwHvdaX_r0FYb-28" value="Desarrollar HTML" style="ellipse;whiteSpace=wrap;html=1;" vertex="1" parent="vYhfG8KYwHvdaX_r0FYb-3">
          <mxGeometry x="102.5" y="330" width="85" height="60" as="geometry" />
        </mxCell>
        <mxCell id="vYhfG8KYwHvdaX_r0FYb-27" value="Conectar con BBDD" style="ellipse;whiteSpace=wrap;html=1;" vertex="1" parent="vYhfG8KYwHvdaX_r0FYb-3">
          <mxGeometry x="102.5" y="260" width="85" height="60" as="geometry" />
        </mxCell>
        <mxCell id="vYhfG8KYwHvdaX_r0FYb-26" value="Desarrollar programación" style="ellipse;whiteSpace=wrap;html=1;" vertex="1" parent="vYhfG8KYwHvdaX_r0FYb-3">
          <mxGeometry x="102.5" y="190" width="85" height="60" as="geometry" />
        </mxCell>
        <mxCell id="vYhfG8KYwHvdaX_r0FYb-25" value="Implementar BBDD - AWS" style="ellipse;whiteSpace=wrap;html=1;" vertex="1" parent="vYhfG8KYwHvdaX_r0FYb-3">
          <mxGeometry x="100" y="120" width="85" height="60" as="geometry" />
        </mxCell>
        <mxCell id="vYhfG8KYwHvdaX_r0FYb-34" value="Hacer documentación" style="ellipse;whiteSpace=wrap;html=1;" vertex="1" parent="vYhfG8KYwHvdaX_r0FYb-3">
          <mxGeometry x="102.5" y="470" width="85" height="60" as="geometry" />
        </mxCell>
        <mxCell id="vYhfG8KYwHvdaX_r0FYb-51" value="" style="endArrow=none;dashed=1;html=1;rounded=0;exitX=1;exitY=0.5;exitDx=0;exitDy=0;curved=1;entryX=1;entryY=0.5;entryDx=0;entryDy=0;" edge="1" parent="vYhfG8KYwHvdaX_r0FYb-3" source="vYhfG8KYwHvdaX_r0FYb-13" target="vYhfG8KYwHvdaX_r0FYb-25">
          <mxGeometry width="50" height="50" relative="1" as="geometry">
            <mxPoint x="380" y="200" as="sourcePoint" />
            <mxPoint x="260" y="160" as="targetPoint" />
            <Array as="points">
              <mxPoint x="210" y="120" />
            </Array>
          </mxGeometry>
        </mxCell>
        <mxCell id="vYhfG8KYwHvdaX_r0FYb-54" value="" style="endArrow=none;dashed=1;html=1;rounded=0;curved=1;entryX=1;entryY=0.5;entryDx=0;entryDy=0;exitX=1;exitY=0.5;exitDx=0;exitDy=0;" edge="1" parent="vYhfG8KYwHvdaX_r0FYb-3" source="vYhfG8KYwHvdaX_r0FYb-13" target="vYhfG8KYwHvdaX_r0FYb-26">
          <mxGeometry width="50" height="50" relative="1" as="geometry">
            <mxPoint x="260" y="160" as="sourcePoint" />
            <mxPoint x="220" y="280" as="targetPoint" />
            <Array as="points">
              <mxPoint x="220" y="170" />
            </Array>
          </mxGeometry>
        </mxCell>
        <mxCell id="vYhfG8KYwHvdaX_r0FYb-56" value="" style="endArrow=none;dashed=1;html=1;rounded=0;exitX=1;exitY=0.5;exitDx=0;exitDy=0;curved=1;entryX=1;entryY=0.5;entryDx=0;entryDy=0;" edge="1" parent="vYhfG8KYwHvdaX_r0FYb-3" source="vYhfG8KYwHvdaX_r0FYb-13" target="vYhfG8KYwHvdaX_r0FYb-27">
          <mxGeometry width="50" height="50" relative="1" as="geometry">
            <mxPoint x="230" y="185" as="sourcePoint" />
            <mxPoint x="230" y="255" as="targetPoint" />
            <Array as="points">
              <mxPoint x="250" y="230" />
            </Array>
          </mxGeometry>
        </mxCell>
        <mxCell id="vYhfG8KYwHvdaX_r0FYb-58" value="" style="endArrow=none;dashed=1;html=1;rounded=0;curved=1;entryX=1;entryY=0.5;entryDx=0;entryDy=0;exitX=1;exitY=0.5;exitDx=0;exitDy=0;" edge="1" parent="vYhfG8KYwHvdaX_r0FYb-3" source="vYhfG8KYwHvdaX_r0FYb-13" target="vYhfG8KYwHvdaX_r0FYb-28">
          <mxGeometry width="50" height="50" relative="1" as="geometry">
            <mxPoint x="190" y="80" as="sourcePoint" />
            <mxPoint x="230" y="340" as="targetPoint" />
            <Array as="points">
              <mxPoint x="270" y="290" />
            </Array>
          </mxGeometry>
        </mxCell>
        <mxCell id="vYhfG8KYwHvdaX_r0FYb-59" value="" style="endArrow=none;dashed=1;html=1;rounded=0;curved=1;entryX=1;entryY=0.5;entryDx=0;entryDy=0;exitX=1;exitY=0.5;exitDx=0;exitDy=0;" edge="1" parent="vYhfG8KYwHvdaX_r0FYb-3" source="vYhfG8KYwHvdaX_r0FYb-13" target="vYhfG8KYwHvdaX_r0FYb-29">
          <mxGeometry width="50" height="50" relative="1" as="geometry">
            <mxPoint x="230" y="110" as="sourcePoint" />
            <mxPoint x="232" y="390" as="targetPoint" />
            <Array as="points">
              <mxPoint x="310" y="320" />
            </Array>
          </mxGeometry>
        </mxCell>
        <mxCell id="vYhfG8KYwHvdaX_r0FYb-60" value="" style="endArrow=none;dashed=1;html=1;rounded=0;curved=1;entryX=1;entryY=0.5;entryDx=0;entryDy=0;exitX=1;exitY=0.5;exitDx=0;exitDy=0;" edge="1" parent="vYhfG8KYwHvdaX_r0FYb-3" source="vYhfG8KYwHvdaX_r0FYb-13" target="vYhfG8KYwHvdaX_r0FYb-34">
          <mxGeometry width="50" height="50" relative="1" as="geometry">
            <mxPoint x="230" y="180" as="sourcePoint" />
            <mxPoint x="232" y="460" as="targetPoint" />
            <Array as="points">
              <mxPoint x="360" y="400" />
            </Array>
          </mxGeometry>
        </mxCell>
        <mxCell id="vYhfG8KYwHvdaX_r0FYb-61" value="&amp;lt;&amp;lt;i&amp;gt;&amp;gt;" style="text;html=1;align=center;verticalAlign=middle;whiteSpace=wrap;rounded=0;" vertex="1" parent="vYhfG8KYwHvdaX_r0FYb-3">
          <mxGeometry x="220" y="120" width="60" height="30" as="geometry" />
        </mxCell>
        <mxCell id="vYhfG8KYwHvdaX_r0FYb-15" value="Raul" style="shape=umlActor;verticalLabelPosition=bottom;verticalAlign=top;html=1;outlineConnect=0;" vertex="1" parent="1">
          <mxGeometry x="40" y="40" width="40" height="90" as="geometry" />
        </mxCell>
        <mxCell id="vYhfG8KYwHvdaX_r0FYb-21" value="Fernando" style="shape=umlActor;verticalLabelPosition=bottom;verticalAlign=top;html=1;outlineConnect=0;" vertex="1" parent="1">
          <mxGeometry x="40" y="220" width="40" height="90" as="geometry" />
        </mxCell>
        <mxCell id="vYhfG8KYwHvdaX_r0FYb-22" value="Ivan" style="shape=umlActor;verticalLabelPosition=bottom;verticalAlign=top;html=1;outlineConnect=0;" vertex="1" parent="1">
          <mxGeometry x="40" y="390" width="40" height="90" as="geometry" />
        </mxCell>
        <mxCell id="vYhfG8KYwHvdaX_r0FYb-23" value="Jaime" style="shape=umlActor;verticalLabelPosition=bottom;verticalAlign=top;html=1;outlineConnect=0;" vertex="1" parent="1">
          <mxGeometry x="40" y="540" width="40" height="90" as="geometry" />
        </mxCell>
        <mxCell id="vYhfG8KYwHvdaX_r0FYb-41" value="" style="endArrow=classic;html=1;rounded=0;exitX=0.5;exitY=0;exitDx=0;exitDy=0;exitPerimeter=0;" edge="1" parent="1" source="vYhfG8KYwHvdaX_r0FYb-21" target="vYhfG8KYwHvdaX_r0FYb-15">
          <mxGeometry width="50" height="50" relative="1" as="geometry">
            <mxPoint x="110" y="190" as="sourcePoint" />
            <mxPoint x="160" y="140" as="targetPoint" />
          </mxGeometry>
        </mxCell>
        <mxCell id="vYhfG8KYwHvdaX_r0FYb-42" value="" style="endArrow=classic;html=1;rounded=0;exitX=0.5;exitY=0;exitDx=0;exitDy=0;exitPerimeter=0;" edge="1" parent="1" source="vYhfG8KYwHvdaX_r0FYb-22" target="vYhfG8KYwHvdaX_r0FYb-21">
          <mxGeometry width="50" height="50" relative="1" as="geometry">
            <mxPoint x="120" y="360" as="sourcePoint" />
            <mxPoint x="170" y="310" as="targetPoint" />
          </mxGeometry>
        </mxCell>
        <mxCell id="vYhfG8KYwHvdaX_r0FYb-43" value="" style="endArrow=classic;html=1;rounded=0;exitX=0.5;exitY=0;exitDx=0;exitDy=0;exitPerimeter=0;" edge="1" parent="1" source="vYhfG8KYwHvdaX_r0FYb-23" target="vYhfG8KYwHvdaX_r0FYb-22">
          <mxGeometry width="50" height="50" relative="1" as="geometry">
            <mxPoint x="110" y="530" as="sourcePoint" />
            <mxPoint x="160" y="480" as="targetPoint" />
          </mxGeometry>
        </mxCell>
        <mxCell id="vYhfG8KYwHvdaX_r0FYb-44" value="" style="endArrow=none;html=1;rounded=0;entryX=0;entryY=0.5;entryDx=0;entryDy=0;" edge="1" parent="1" target="vYhfG8KYwHvdaX_r0FYb-13">
          <mxGeometry width="50" height="50" relative="1" as="geometry">
            <mxPoint x="90" y="80" as="sourcePoint" />
            <mxPoint x="230" y="100" as="targetPoint" />
          </mxGeometry>
        </mxCell>
        <mxCell id="vYhfG8KYwHvdaX_r0FYb-45" value="" style="endArrow=none;html=1;rounded=0;entryX=0;entryY=0.5;entryDx=0;entryDy=0;" edge="1" parent="1" target="vYhfG8KYwHvdaX_r0FYb-25">
          <mxGeometry width="50" height="50" relative="1" as="geometry">
            <mxPoint x="90" y="260" as="sourcePoint" />
            <mxPoint x="200" y="240" as="targetPoint" />
          </mxGeometry>
        </mxCell>
        <mxCell id="vYhfG8KYwHvdaX_r0FYb-46" value="" style="endArrow=none;html=1;rounded=0;entryX=0;entryY=0.5;entryDx=0;entryDy=0;" edge="1" parent="1" target="vYhfG8KYwHvdaX_r0FYb-26">
          <mxGeometry width="50" height="50" relative="1" as="geometry">
            <mxPoint x="90" y="430" as="sourcePoint" />
            <mxPoint x="200" y="370" as="targetPoint" />
          </mxGeometry>
        </mxCell>
        <mxCell id="vYhfG8KYwHvdaX_r0FYb-47" value="" style="endArrow=none;html=1;rounded=0;entryX=0;entryY=0.5;entryDx=0;entryDy=0;" edge="1" parent="1" target="vYhfG8KYwHvdaX_r0FYb-34">
          <mxGeometry width="50" height="50" relative="1" as="geometry">
            <mxPoint x="90" y="260" as="sourcePoint" />
            <mxPoint x="230" y="450" as="targetPoint" />
          </mxGeometry>
        </mxCell>
        <mxCell id="vYhfG8KYwHvdaX_r0FYb-48" value="" style="endArrow=none;html=1;rounded=0;entryX=0;entryY=0.5;entryDx=0;entryDy=0;" edge="1" parent="1" target="vYhfG8KYwHvdaX_r0FYb-27">
          <mxGeometry width="50" height="50" relative="1" as="geometry">
            <mxPoint x="90" y="430" as="sourcePoint" />
            <mxPoint x="170" y="420" as="targetPoint" />
          </mxGeometry>
        </mxCell>
        <mxCell id="vYhfG8KYwHvdaX_r0FYb-49" value="" style="endArrow=none;html=1;rounded=0;entryX=0;entryY=0.5;entryDx=0;entryDy=0;" edge="1" parent="1" target="vYhfG8KYwHvdaX_r0FYb-28">
          <mxGeometry width="50" height="50" relative="1" as="geometry">
            <mxPoint x="90" y="580" as="sourcePoint" />
            <mxPoint x="210" y="470" as="targetPoint" />
          </mxGeometry>
        </mxCell>
        <mxCell id="vYhfG8KYwHvdaX_r0FYb-50" value="" style="endArrow=none;html=1;rounded=0;entryX=0;entryY=0.5;entryDx=0;entryDy=0;" edge="1" parent="1" target="vYhfG8KYwHvdaX_r0FYb-29">
          <mxGeometry width="50" height="50" relative="1" as="geometry">
            <mxPoint x="90" y="260" as="sourcePoint" />
            <mxPoint x="210" y="460" as="targetPoint" />
          </mxGeometry>
        </mxCell>
      </root>
    </mxGraphModel>
  </diagram>
</mxfile>
